<svg viewBox="0 0 100 100" fill="none" xmlns="http://www.w3.org/2000/svg">
<path d="M45.8548 0.280566C45.2682 0.43723 44.4274 0.770141 43.9972 1.0443C42.863 1.71012 41.416 3.33551 40.8098 4.62799C40.3405 5.60714 40.2819 5.97922 40.2819 7.80043C40.2819 9.73915 40.321 9.95456 40.9076 11.1491C41.7093 12.7549 43.0781 14.0866 44.838 14.9091C46.0113 15.477 46.3241 15.5357 47.908 15.5161C50.2154 15.4965 51.506 15.007 53.1095 13.5187C54.5174 12.2262 55.3778 10.6595 55.5929 8.97541C56.375 3.31593 51.33 -1.18816 45.8548 0.280566ZM49.3355 4.19716C52.034 5.31339 52.6793 8.68167 50.5674 10.6008C48.0254 12.9116 44.0949 11.2079 44.0949 7.80043C44.0949 5.01965 46.8325 3.13968 49.3355 4.19716Z" fill="currentColor"/>
<path d="M65.1549 0.339269C63.0235 1.04426 61.42 2.43465 60.4423 4.47128C59.8752 5.64626 59.8361 5.90084 59.8361 7.80039C59.8361 9.62161 59.8948 9.99369 60.3641 10.9728C60.9703 12.3045 62.3782 13.8515 63.5514 14.5565C67.4036 16.8086 72.4486 15.2419 74.4432 11.1687C75.0494 9.95452 75.0885 9.73911 75.0885 7.80039C75.0885 5.86167 75.0494 5.66584 74.4432 4.43212C73.6219 2.76756 71.9207 1.14217 70.3563 0.554682C68.7724 -0.0719739 66.6215 -0.150306 65.1549 0.339269ZM69.1244 4.31462C70.4932 5.01961 71.1385 5.99875 71.2363 7.48706C71.2949 8.44663 71.2363 8.87746 70.9038 9.50411C69.5742 12.1478 66.1326 12.4416 64.3336 10.0524C63.3363 8.75996 63.4146 6.54708 64.49 5.31335C65.722 3.90337 67.5405 3.51171 69.1244 4.31462Z" fill="currentColor"/>
<path d="M36.1754 15.9861C34.7871 16.4365 33.125 18.1207 32.6557 19.5306C31.7366 22.3506 33.0076 25.4447 35.6475 26.7372C37.8376 27.8142 40.4774 27.3442 42.2764 25.5818C45.2877 22.6247 44.1731 17.5136 40.1841 16.0057C38.9913 15.5553 37.4856 15.5553 36.1754 15.9861ZM39.4019 20.079C40.2232 20.8231 40.3405 21.626 39.7539 22.4681C39.4997 22.8402 39.0499 23.2318 38.7566 23.3297C36.8598 23.9564 35.4128 21.5477 36.8403 20.1181C37.6029 19.3544 38.5806 19.3348 39.4019 20.079Z" fill="currentColor"/>
<path d="M54.6934 16.0253C50.7239 17.0632 47.8103 19.9027 46.5392 23.9172C45.6789 26.6197 45.0922 27.3247 42.6675 28.5976C38.4829 30.7908 36.0777 35.0012 36.3124 39.7207C36.7621 48.6114 46.4219 53.6834 54.0872 49.0422C55.6515 48.1022 56.4533 47.8868 58.0763 47.9847C59.2886 48.063 59.7188 48.2001 61.1268 48.9639C63.4537 50.2367 65.1158 50.7263 67.2668 50.7459C70.7084 50.7851 73.2504 49.7472 75.6751 47.2797C78.0999 44.8514 79.0971 42.4231 79.0971 39.0353C79.0971 34.4724 76.8289 30.6733 72.8984 28.5976C70.8257 27.5205 69.7111 26.2868 69.1049 24.4851C67.873 20.7448 65.9371 18.4144 62.7106 16.8086C60.3055 15.614 57.3723 15.3203 54.6934 16.0253ZM60.5792 20.0985C62.8671 21.1169 64.3141 22.7031 65.194 25.1705C66.0349 27.5009 66.0935 27.5988 67.0126 28.8717C67.9903 30.1642 69.1831 31.1433 70.9821 32.0442C72.5856 32.8471 73.7393 34.0025 74.4628 35.5691C75.0494 36.8028 75.0885 37.0182 75.0885 39.0353C75.0885 41.0719 75.0494 41.2677 74.4628 42.4819C73.3286 44.7731 71.1972 46.3397 68.5769 46.7901C66.8953 47.0839 65.5069 46.7706 62.9649 45.4977C60.3837 44.2052 59.2691 43.9506 56.8444 44.0681C55.0454 44.166 54.928 44.2052 52.6206 45.3802C49.8244 46.7901 48.6316 47.0839 46.7152 46.7706C44.1732 46.3593 41.9049 44.6556 40.8098 42.3056C40.3405 41.3265 40.2819 40.9544 40.2819 39.1332C40.2819 37.2141 40.321 36.9791 40.9076 35.8041C41.6898 34.1983 42.9999 32.8862 44.7011 31.9854C47.5561 30.4775 49.0031 28.8521 49.9417 25.9734C50.7043 23.741 51.1932 22.801 52.21 21.8023C53.0899 20.921 54.185 20.2552 55.5342 19.8048C56.6879 19.4327 59.4255 19.5894 60.5792 20.0985Z" fill="currentColor"/>
<path d="M75.3231 15.9273C72.9375 16.8086 71.4318 18.9627 71.4318 21.5085C71.4318 26.5609 77.4154 29.1654 81.1894 25.758C82.8124 24.2893 83.4382 21.7239 82.6951 19.511C82.2062 18.0423 80.5246 16.3778 79.0971 15.9469C77.8261 15.5749 76.3204 15.5553 75.3231 15.9273ZM78.53 20.1181C80.0553 21.6652 78.3736 24.1326 76.4182 23.1926C75.1471 22.5856 74.932 20.9602 76.0075 20.0398C76.8288 19.3544 77.787 19.374 78.53 20.1181Z" fill="currentColor"/>
<path d="M0.54752 53.8988L0 54.3688V72.9139V91.4589L0.54752 91.9289L1.09504 92.3989H7.97815H14.8613L16.0345 91.8506C17.2273 91.2827 18.2246 90.3427 18.7721 89.2656C19.0654 88.7173 19.1241 88.6782 19.9063 88.7957C21.1577 88.9915 23.8758 89.814 24.7557 90.2448C25.1664 90.4602 27.9626 92.066 30.9349 93.8089C38.0722 97.9605 39.7734 98.7438 43.4105 99.5663C45.6397 100.056 49.9417 100.154 52.3273 99.7425C55.2996 99.253 56.8834 98.6851 65.3114 95.0035C69.5155 93.1627 74.5214 90.9694 76.4573 90.1273C78.3932 89.2852 80.1726 88.4823 80.4073 88.3257C80.6615 88.169 80.9548 87.7186 81.0721 87.3269C81.2481 86.7199 81.2285 86.4849 80.9548 85.9561C80.5833 85.2316 79.4882 84.6636 78.8429 84.8791C78.6083 84.9574 73.2699 87.2486 66.9735 89.9902C59.3277 93.3389 54.928 95.1405 53.6765 95.4735C50.1372 96.4134 45.7179 96.2959 42.2373 95.1993C40.1059 94.5335 39.0304 93.9656 32.3624 90.1077C29.1946 88.2669 26.0463 86.5436 25.3815 86.2695C24.3647 85.8582 22.4092 85.3491 19.9063 84.8399L19.4565 84.7616V73.0118V61.262H27.0827C34.2591 61.262 34.7871 61.2816 35.9017 61.6536C36.547 61.8886 39.4801 63.4161 42.3937 65.0611C45.3269 66.706 48.0254 68.2335 48.3969 68.4294C49.0226 68.7623 49.707 68.8014 56.8052 68.8993L64.5292 68.9973L65.4482 69.5456C68.0685 71.0926 68.0294 75.0288 65.37 76.3213C64.5096 76.7325 64.3336 76.7325 54.1067 76.7325C42.8239 76.7325 42.7261 76.7325 42.0417 77.79C41.5724 78.495 41.768 79.6308 42.4328 80.1987L42.9412 80.6491H53.9503H64.9594L67.3841 79.7875C68.7138 79.2979 74.6974 77.2221 80.6615 75.1855C88.4245 72.5026 91.7488 71.4451 92.3745 71.4451C94.3886 71.4451 95.992 73.0118 95.992 74.9897C95.992 76.2038 95.3663 77.0067 93.45 78.3188C92.6483 78.8671 91.8856 79.5133 91.7683 79.7679C91.4554 80.4337 91.7292 81.55 92.3354 82.0199C93.5282 82.9403 95.1512 82.2158 97.791 79.5917C100.04 77.3396 100.529 75.2442 99.4532 72.4243C98.2212 69.1931 95.3859 67.3719 91.9443 67.5873C90.4973 67.6656 89.3631 68.0181 80.9548 70.936C75.7925 72.718 71.5101 74.1868 71.4514 74.1868C71.3732 74.1868 71.295 73.4034 71.2363 72.4634C71.1776 71.0535 71.0603 70.5051 70.591 69.5652C69.8675 68.0769 68.264 66.4711 66.8366 65.8052L65.7024 65.2765L58.0763 65.1786C51.0563 65.0807 50.3914 65.0415 49.7657 64.7086C49.3942 64.5128 47.0672 63.2007 44.6034 61.8103C36.1754 57.0516 37.3487 57.3454 27.0045 57.3454H19.1632L18.6939 56.4446C18.4201 55.955 17.8335 55.2108 17.3642 54.7996C15.8585 53.4679 15.5457 53.4288 7.89994 53.4288H1.09504L0.54752 53.8988ZM14.5875 57.5412C15.5652 58.07 15.5457 57.8741 15.5457 72.9139C15.5457 87.9536 15.5652 87.7578 14.5875 88.2865C14.3529 88.404 12.2019 88.4823 9.01453 88.4823H3.81309V72.9139V57.3454H9.01453C12.2019 57.3454 14.3529 57.4237 14.5875 57.5412Z" fill="currentColor"/>
<path d="M8.29104 61.8299C6.57026 63.5728 9.13187 66.1186 10.9895 64.5128C11.4393 64.1211 11.5371 63.8861 11.5371 63.1224C11.5371 62.3587 11.4393 62.1237 10.9895 61.732C10.1878 61.0466 9.05365 61.0858 8.29104 61.8299Z" fill="currentColor"/>
<path d="M85.5891 81.922C84.8461 82.2549 84.2986 83.3124 84.4941 84.0761C84.8656 85.5448 86.6451 86.0344 87.7206 84.9769C88.7374 83.939 88.3659 82.3332 86.9775 81.8045C86.3909 81.5891 86.3713 81.5891 85.5891 81.922Z" fill="currentColor"/>
</svg>
