<svg viewBox="0 0 100 100" fill="none" xmlns="http://www.w3.org/2000/svg">
<path d="M44.8442 0.195107C37.8829 0.78116 29.7972 3.0277 23.9124 5.9775C14.3675 10.7831 6.87991 18.226 3.00453 26.7824C-0.0335672 33.5025 -0.799073 41.4728 0.851549 49.5994C4.22456 66.2043 17.5252 81.9691 38.7202 94.4911L41.4234 96.093H37.3088H33.1942L32.3808 96.7572C31.2804 97.6558 31.2804 98.4372 32.3808 99.3358L33.1942 100H49.9875H66.7807L67.5941 99.3358C68.6945 98.4372 68.6945 97.6558 67.5941 96.7572L66.7807 96.093H62.6661H58.5276L61.2547 94.4911C75.4405 86.2082 86.8513 75.5811 93.1907 64.7391C99.3626 54.1902 101.444 42.723 99.0037 32.7015C96.4919 22.2893 88.6933 12.8539 77.5696 6.77844C74.7707 5.23517 68.9098 2.91049 65.6564 2.03141C59.1974 0.312318 51.5185 -0.371411 44.8442 0.195107ZM54.5566 4.08259C75.7993 5.84075 92.6644 19.5935 94.9848 36.9993C95.3197 39.617 95.1284 45.1259 94.6021 48.0366C92.4491 59.8553 85.3442 70.795 73.3115 80.8361C68.0486 85.2315 63.5273 88.3961 57.6904 91.7757C54.724 93.4753 50.3941 95.7023 50.0353 95.7023C49.4133 95.7023 42.8587 92.186 38.9594 89.7636C30.0843 84.2547 21.7116 77.1439 16.353 70.5997C6.09048 58.0581 2.38256 43.6803 6.23401 31.4904C11.7361 14.0064 32.4526 2.26583 54.5566 4.08259Z" fill="currentColor"/>
<path d="M44.1265 9.63055C35.395 10.8222 27.9313 14.0064 21.8551 19.1637C11.8796 27.6224 8.48269 40.0077 13.0518 51.1622C13.913 53.2525 16.2574 57.0618 17.7405 58.82C21.7116 63.4889 26.8787 67.1419 32.8832 69.5252C43.672 73.8425 56.0876 73.862 66.8525 69.6229C84.5309 62.6293 93.095 46.2198 86.9231 31.0606C82.5932 20.4335 71.4694 12.3264 57.9296 9.92358C54.9393 9.39613 47.069 9.23985 44.1265 9.63055ZM55.3699 13.5571C64.7713 14.7878 73.1201 19.1637 78.3351 25.5712C81.0383 28.8922 82.665 32.1545 83.6458 36.2178C84.2677 38.8355 84.196 43.7779 83.5262 46.4152C80.5359 57.8237 69.9384 66.2824 55.8483 68.4703C52.882 68.9392 47.069 68.9392 44.0069 68.4703C39.2464 67.728 33.9836 65.9307 30.1561 63.7037C27.9074 62.4144 24.3669 59.5428 22.5967 57.6283C17.4056 52.0022 14.9895 44.4812 16.1138 37.5658C18.0994 25.2586 29.4623 15.6669 44.4854 13.5571C46.9733 13.2055 52.7624 13.2055 55.3699 13.5571Z" fill="currentColor"/>
<path d="M38.6484 18.8707C36.9499 19.2809 34.486 21.3321 33.7444 22.934C31.9263 26.8996 33.7922 31.4708 37.9786 33.1313C39.7249 33.8345 42.141 33.8736 43.8156 33.2485C48.9827 31.3145 50.6573 25.2586 47.1407 21.2539C45.0834 18.9097 41.9496 18.0306 38.6484 18.8707ZM42.8108 23.1879C44.3418 24.4186 44.6528 26.5675 43.6003 28.228C43.074 29.0875 41.83 29.8689 41.0167 29.8689C39.5814 29.8689 38.0503 28.267 37.835 26.5675C37.5958 24.4968 39.1747 22.4456 41.0167 22.4456C41.7343 22.4456 42.0932 22.6019 42.8108 23.1879Z" fill="currentColor"/>
<path d="M56.6139 18.8316C54.1977 19.5739 52.0687 21.586 51.3032 23.8912C50.0592 27.6224 52.2122 31.7834 56.1593 33.2485C57.8339 33.8736 60.25 33.8345 61.9963 33.1313C66.1827 31.4708 68.0486 26.8996 66.2305 22.934C65.4411 21.2539 63.025 19.2809 61.2308 18.8511C59.6759 18.48 57.8578 18.4604 56.6139 18.8316ZM60.7524 23.1879C62.8097 24.8679 62.5465 28.1694 60.2739 29.4196C59.2692 29.9861 58.6472 29.9861 57.6425 29.4196C56.5182 28.814 55.944 27.9154 55.8005 26.548C55.6331 25.0828 56.1593 23.8716 57.3076 23.0316C58.5037 22.1721 59.5802 22.2112 60.7524 23.1879Z" fill="currentColor"/>
<path d="M26.5438 30.3182C20.1088 31.8029 18.1711 39.5388 23.2426 43.5435C25.8022 45.5752 29.5819 45.8682 32.4047 44.2468C37.0456 41.5509 37.6676 35.6318 33.6726 32.0959C31.8784 30.5136 28.9121 29.7713 26.5438 30.3182ZM29.6537 34.4011C31.9263 35.6709 32.1894 38.9723 30.1321 40.6523C29.4145 41.2384 29.0556 41.3947 28.338 41.3947C26.496 41.3947 24.9171 39.3435 25.1563 37.2727C25.3716 35.5732 26.9027 33.9713 28.338 33.9713C28.625 33.9713 29.2231 34.1667 29.6537 34.4011Z" fill="currentColor"/>
<path d="M69.8428 30.3183C65.9674 31.2169 63.336 34.6355 63.6948 38.3472C63.8383 40.0467 64.556 41.6096 65.6803 42.7621C70.0102 47.1966 77.4978 45.5752 79.3159 39.8319C81.0144 34.3816 75.6319 28.9899 69.8428 30.3183ZM72.9526 34.4011C75.2252 35.6709 75.4884 38.9723 73.4311 40.6523C72.7134 41.2384 72.3546 41.3947 71.6369 41.3947C69.7949 41.3947 68.2161 39.3435 68.4553 37.2728C68.6706 35.5732 70.2016 33.9713 71.6369 33.9713C71.924 33.9713 72.522 34.1667 72.9526 34.4011Z" fill="currentColor"/>
<path d="M47.4756 34.7918C46.8297 34.8895 45.4183 35.3193 44.3418 35.7295C41.0645 37.0188 38.2656 39.8905 37.548 42.6645C37.2848 43.6608 37.1652 43.7975 35.993 44.4226C32.4287 46.3566 30.3714 49.5213 30.3714 53.0571C30.3714 56.0069 31.5914 58.4488 34.0554 60.461C36.4954 62.4535 39.5335 63.4694 43.0261 63.4694C45.3226 63.4694 47.1407 63.1373 48.8631 62.4145L50.0114 61.9066L51.1835 62.4145C52.9059 63.1568 54.6283 63.4694 56.9966 63.4694C64.0775 63.4694 69.6035 58.9372 69.6035 53.1158C69.6035 49.5604 67.5223 46.3566 64.0058 44.4422C62.8336 43.817 62.6901 43.6412 62.4269 42.7231C61.5896 39.7342 58.9343 37.0384 55.633 35.7295C52.8102 34.6355 50.3463 34.3425 47.4756 34.7918ZM53.3605 39.1677C55.8723 40.1054 57.499 41.9612 57.8578 44.3445C58.1449 46.0636 58.5276 46.5715 60.1782 47.1575C61.9485 47.8022 63.6709 49.2869 64.3407 50.7129C65.0583 52.2562 64.9387 54.5418 64.1015 55.9483C62.8097 58.1363 60.3935 59.4061 57.3554 59.5233C55.1307 59.6209 53.6236 59.2498 51.9969 58.2535C50.4898 57.3158 49.4851 57.3158 47.978 58.2535C46.3513 59.2498 44.8442 59.6209 42.6195 59.5233C39.5814 59.4061 37.1652 58.1363 35.8734 55.9483C35.0362 54.5418 34.9166 52.2562 35.6342 50.7129C36.304 49.2869 38.0264 47.8022 39.7966 47.1575C41.4233 46.5715 41.7822 46.1417 42.0932 44.364C42.4759 42.1175 43.7199 40.5156 45.8728 39.4998C48.2651 38.3472 50.8247 38.23 53.3605 39.1677Z" fill="currentColor"/>
</svg>
