<svg viewBox="0 0 188 236" fill="none" xmlns="http://www.w3.org/2000/svg">
<path d="M84.3071 0.460434C71.2198 1.84352 56.0188 7.14536 44.9553 14.1069C27.0109 25.4482 12.9342 43.0134 5.64852 63.2064C-0.0631063 79.0658 -1.50226 97.8758 1.60091 117.055C7.94217 156.242 32.9474 193.447 72.7939 222.999L77.8759 226.779H70.1405H62.405L60.8759 228.347C58.8072 230.468 58.8072 232.312 60.8759 234.433L62.405 236H93.9764H125.548L127.077 234.433C129.146 232.312 129.146 230.468 127.077 228.347L125.548 226.779H117.812H110.032L115.159 222.999C141.828 203.451 163.281 178.371 175.198 152.784C186.802 127.889 190.714 100.826 186.127 77.1756C181.405 52.6028 166.743 30.3351 145.831 15.9971C140.569 12.355 129.55 6.86873 123.434 4.79411C111.291 0.737061 96.8547 -0.876541 84.3071 0.460434ZM102.566 9.6349C142.503 13.7842 174.209 46.2406 178.571 87.3182C179.201 93.496 178.841 106.497 177.852 113.366C173.804 141.259 160.447 167.076 137.826 190.773C127.931 201.146 119.431 208.615 108.458 216.591C102.881 220.602 94.741 225.857 94.0663 225.857C92.897 225.857 80.5743 217.559 73.2436 211.842C56.5585 198.841 40.8178 182.06 30.7437 166.615C11.4501 137.017 4.47921 103.085 11.7199 74.3172C22.0638 33.0552 61.0109 5.34734 102.566 9.6349Z" fill="currentColor"/>
<path d="M82.9579 22.7282C66.5426 25.5405 52.5109 33.0552 41.0876 45.2264C22.3337 65.1889 15.9474 94.4181 24.5374 120.743C26.1564 125.676 30.5638 134.666 33.3522 138.815C40.8178 149.834 50.532 158.455 61.8204 164.08C82.1034 174.268 105.445 174.314 125.683 164.31C158.918 147.805 175.019 109.079 163.415 73.303C155.275 48.2231 134.363 29.0904 108.908 23.4197C103.286 22.1749 88.4896 21.8061 82.9579 22.7282ZM104.095 31.9949C121.77 34.8993 137.466 45.2264 147.27 60.3481C152.352 68.1856 155.41 75.8848 157.254 85.4742C158.423 91.652 158.288 103.316 157.029 109.54C151.407 136.464 131.484 156.426 104.995 161.59C99.4182 162.696 88.4896 162.696 82.733 161.59C73.7833 159.838 63.8891 155.597 56.6934 150.341C52.4659 147.298 45.8098 140.521 42.4818 136.003C32.7225 122.725 28.1802 104.976 30.294 88.6553C34.0268 59.6105 55.3892 36.974 83.6325 31.9949C88.3097 31.165 99.1933 31.165 104.095 31.9949Z" fill="currentColor"/>
<path d="M72.659 44.5347C69.4659 45.5029 64.8336 50.3437 63.4395 54.1241C60.0215 63.483 63.5294 74.2711 71.3998 78.1898C74.6828 79.8495 79.2251 79.9417 82.3733 78.4664C92.0875 73.9022 95.2357 59.6104 88.6246 50.1593C84.7569 44.6269 78.8654 42.5523 72.659 44.5347ZM80.4844 54.7235C83.3627 57.6279 83.9474 62.6992 81.9685 66.618C80.9791 68.6465 78.6405 70.4906 77.1114 70.4906C74.413 70.4906 71.5347 66.7102 71.1299 62.6992C70.6802 57.8123 73.6484 52.9715 77.1114 52.9715C78.4606 52.9715 79.1352 53.3404 80.4844 54.7235Z" fill="currentColor"/>
<path d="M106.434 44.4425C101.892 46.1944 97.8891 50.943 96.4499 56.3832C94.1113 65.1888 98.1589 75.0087 105.58 78.4664C108.728 79.9417 113.27 79.8495 116.553 78.1898C124.423 74.2711 127.931 63.483 124.513 54.1241C123.029 50.1593 118.487 45.5029 115.114 44.4886C112.191 43.6127 108.773 43.5666 106.434 44.4425ZM114.214 54.7235C118.082 58.6883 117.587 66.4797 113.315 69.4303C111.426 70.7673 110.257 70.7673 108.368 69.4303C106.254 68.0011 105.175 65.8803 104.905 62.6531C104.59 59.1954 105.58 56.3371 107.738 54.3546C109.987 52.3261 112.011 52.4183 114.214 54.7235Z" fill="currentColor"/>
<path d="M49.9024 71.5511C37.8045 75.0549 34.1617 93.3116 43.696 102.763C48.5082 107.557 55.614 108.249 60.9209 104.422C69.6457 98.0602 70.815 84.091 63.3045 75.7464C59.9315 72.0121 54.3548 70.2602 49.9024 71.5511ZM55.7489 81.1866C60.0214 84.1832 60.5161 91.9746 56.6484 95.9395C55.2992 97.3226 54.6246 97.6914 53.2754 97.6914C49.8124 97.6914 46.8442 92.8506 47.2939 87.9637C47.6987 83.9527 50.577 80.1723 53.2754 80.1723C53.8151 80.1723 54.9394 80.6333 55.7489 81.1866Z" fill="currentColor"/>
<path d="M131.304 71.551C124.019 73.6717 119.072 81.7397 119.746 90.4993C120.016 94.5102 121.365 98.1985 123.479 100.919C131.619 111.384 145.696 107.557 149.114 94.0031C152.307 81.1404 142.188 68.416 131.304 71.551ZM137.151 81.1865C141.423 84.1832 141.918 91.9746 138.05 95.9394C136.701 97.3225 136.027 97.6913 134.677 97.6913C131.214 97.6913 128.246 92.8505 128.696 87.9636C129.101 83.9527 131.979 80.1722 134.677 80.1722C135.217 80.1722 136.341 80.6333 137.151 81.1865Z" fill="currentColor"/>
<path d="M89.2542 82.1086C88.0399 82.3391 85.3864 83.3534 83.3626 84.3215C77.2013 87.3643 71.9394 94.1414 70.5902 100.688C70.0955 103.039 69.8706 103.362 67.6669 104.837C60.9659 109.401 57.0981 116.87 57.0981 125.215C57.0981 132.176 59.3918 137.939 64.0241 142.688C68.6113 147.39 74.323 149.788 80.8891 149.788C85.2066 149.788 88.6245 149.004 91.8626 147.298L94.0214 146.099L96.2251 147.298C99.4631 149.05 102.701 149.788 107.154 149.788C120.466 149.788 130.855 139.092 130.855 125.353C130.855 116.962 126.942 109.401 120.331 104.883C118.127 103.408 117.857 102.993 117.363 100.826C115.789 93.7726 110.796 87.4104 104.59 84.3215C99.2832 81.7398 94.651 81.0482 89.2542 82.1086ZM100.318 92.4356C105.04 94.6486 108.098 99.0283 108.773 104.653C109.312 108.71 110.032 109.909 113.135 111.292C116.463 112.813 119.701 116.317 120.96 119.682C122.31 123.325 122.085 128.719 120.511 132.038C118.082 137.202 113.54 140.198 107.828 140.475C103.646 140.705 100.812 139.829 97.7541 137.478C94.9208 135.265 93.0319 135.265 90.1986 137.478C87.1404 139.829 84.3071 140.705 80.1246 140.475C74.4129 140.198 69.8706 137.202 67.442 132.038C65.868 128.719 65.6431 123.325 66.9923 119.682C68.2516 116.317 71.4897 112.813 74.8177 111.292C77.8759 109.909 78.5505 108.894 79.1351 104.699C79.8547 99.3972 82.1933 95.6167 86.2409 93.2194C90.7383 90.4993 95.5504 90.2227 100.318 92.4356Z" fill="currentColor"/>
</svg>
