<svg viewBox="0 0 100 100" fill="none" xmlns="http://www.w3.org/2000/svg">
<path d="M38.9542 0.157074C33.9063 0.722519 28.7374 2.25732 24.2146 4.49892C19.3687 6.90208 15.7342 9.58797 12.0998 13.3846C5.25499 20.5537 1.23693 29.3182 0.146608 39.4155C-0.156261 42.3639 0.0254605 47.6145 0.550433 50.7245C2.30707 60.9228 7.39526 69.9498 15.1285 76.5736C21.5291 82.0262 28.7576 85.3179 37.4196 86.6912C40.4281 87.1758 46.4451 87.1758 49.7161 86.6912C55.935 85.7824 62.5577 83.2985 67.3834 80.0471L68.2516 79.4615L78.1857 89.3569C89.1092 100.262 88.8063 99.9994 91.3302 99.9994C93.208 99.9994 94.3589 99.3128 96.9434 96.7077C99.4269 94.1834 99.9922 93.1938 99.9922 91.3157C100.033 88.7914 100.275 89.1145 89.3717 78.169L79.4981 68.2534L80.5077 66.6379C83.6979 61.468 85.7574 55.8741 86.7064 49.7148C87.191 46.625 87.1708 40.4252 86.7064 37.295C85.4142 28.9345 82.0221 21.4624 76.6108 15.1415C69.9477 7.34637 61.0636 2.3381 50.7458 0.520576C47.9393 0.0359039 41.7002 -0.166046 38.9542 0.157074ZM51.4525 3.85269C68.1507 7.40695 80.4875 20.1296 83.4354 36.8912C83.92 39.5367 84.0816 44.7469 83.7787 47.5943C83.1124 54.0162 80.8913 60.216 77.2771 65.7897C76.3685 67.1831 75.8839 68.1323 75.8839 68.516C75.8839 69.0208 77.2771 70.4951 86.1007 79.2999C91.7138 84.914 96.4386 89.7406 96.6001 90.0435C96.9434 90.6897 96.9636 91.6792 96.6607 92.2851C96.3376 92.9313 93.0465 96.2432 92.4003 96.5865C91.6936 96.9501 90.7447 96.9501 90.0582 96.5865C89.7553 96.425 84.9296 91.6994 79.3164 86.0853C70.5131 77.2603 69.0391 75.8668 68.5343 75.8668C68.1507 75.8668 67.2017 76.3515 65.8085 77.2603C46.5259 89.8011 21.2061 84.187 9.11151 64.6992C6.68857 60.7814 4.91174 56.2578 3.90218 51.4313C3.23587 48.3415 2.99357 42.3033 3.37721 38.8904C5.47709 20.695 19.6917 6.11449 37.9244 3.46899C39.257 3.26705 41.2358 3.20647 44.3856 3.24686C48.3633 3.30744 49.2517 3.38821 51.4525 3.85269Z" fill="currentColor"/>
<path d="M40.0647 9.85051C34.4111 10.4362 28.5355 12.6778 23.7906 16.0503C21.3474 17.787 17.814 21.3211 16.0775 23.7646C4.95214 39.4761 8.82885 60.9632 24.6992 71.6664C34.9361 78.5729 48.1008 79.3201 59.1252 73.6252C62.3558 71.9491 64.8999 70.0912 67.5046 67.4861C79.2559 55.7328 80.75 37.4162 71.0784 23.7646C69.342 21.3211 65.8085 17.787 63.3654 16.0503C56.5407 11.2237 48.1816 9.00233 40.0647 9.85051ZM49.7969 13.4452C61.9116 16.0907 70.9977 25.1984 73.7033 37.4162C74.0667 39.1126 74.1475 40.0415 74.1475 43.5554C74.1475 47.0693 74.0667 47.9982 73.7033 49.6946C70.9977 61.9527 61.9722 70.9797 49.6959 73.6858C48.02 74.0493 47.071 74.1301 43.578 74.1301C39.7416 74.1301 39.257 74.0897 37.036 73.5647C34.1285 72.878 31.9882 72.1106 29.6662 70.9192C21.2465 66.5773 15.5323 59.0649 13.4526 49.6946C13.0892 47.9982 13.0084 47.0693 13.0084 43.5554C13.0084 40.0415 13.0892 39.1126 13.4526 37.4162C16.3804 24.2089 26.799 14.677 40.1455 12.9807C41.9425 12.7585 47.9595 13.0413 49.7969 13.4452Z" fill="currentColor"/>
<path d="M34.0073 22.8357C32.3314 23.4617 31.3017 24.6936 30.7363 26.7332C29.545 31.1155 32.2103 35.316 36.511 35.8208C39.0551 36.1238 41.1954 34.1447 41.7809 30.9337C42.3665 27.7228 40.7512 24.5724 37.8436 23.2396C36.4706 22.6135 35.0169 22.4722 34.0073 22.8357ZM36.5716 26.1072C37.4802 26.5717 37.9042 26.9958 38.3484 27.844C38.9945 29.1364 38.7724 31.1963 37.8638 32.1858C36.935 33.2157 34.8957 32.3676 34.0073 30.5904C33.4217 29.3989 33.4016 29.2374 33.7044 27.8238C34.0881 26.0062 35.138 25.3802 36.5716 26.1072Z" fill="currentColor"/>
<path d="M50.4228 22.8154C48.3431 23.4011 46.7682 24.7541 45.8192 26.7938C45.375 27.7227 45.3144 28.167 45.3144 29.621C45.3548 32.4685 46.3845 34.4274 48.3229 35.3967C49.2719 35.841 49.6151 35.9218 50.5439 35.8208C52.8255 35.5785 54.8043 34.2456 55.8946 32.2262C56.4398 31.176 56.5811 30.651 56.6619 29.3989C56.9244 24.8753 54.037 21.8057 50.4228 22.8154ZM52.765 26.3091C53.3303 26.915 53.7543 28.6921 53.5524 29.5403C53.1688 31.2164 51.6544 32.6502 50.3016 32.6502C48.2623 32.6502 47.7373 28.369 49.5546 26.7736C50.7862 25.7033 52.0381 25.5215 52.765 26.3091Z" fill="currentColor"/>
<path d="M22.4377 32.3474C20.5195 33.3167 19.51 35.2756 19.4696 38.1029C19.4494 39.6578 19.51 39.9608 20.1157 41.1724C21.1253 43.2525 23.0838 44.7065 25.3251 45.07C28.5355 45.5749 31.0796 42.4043 30.8171 38.2442C30.595 34.8717 27.9903 32.1858 24.6184 31.9031C23.6896 31.8223 23.3059 31.9031 22.4377 32.3474ZM25.8904 35.5583C27.0615 36.2449 27.7278 37.4768 27.7076 38.9308C27.6874 40.9301 26.6779 42.2024 25.3654 41.8793C23.8511 41.4956 22.5791 39.8598 22.5791 38.3048C22.5791 35.5381 23.9319 34.4072 25.8904 35.5583Z" fill="currentColor"/>
<path d="M61.2453 32.1252C58.3579 33.034 56.5205 35.316 56.3388 38.2442C56.0763 42.4043 58.6204 45.5749 61.8308 45.07C64.072 44.7065 66.0306 43.2525 67.0401 41.1724C67.6459 39.9608 67.7065 39.6578 67.6863 38.1029C67.6661 37.0931 67.5247 36.043 67.343 35.5179C66.2527 32.6099 63.8903 31.2973 61.2453 32.1252ZM63.7288 35.5381C64.6778 36.5479 64.8595 38.7087 64.1124 40.0213C63.3653 41.334 61.8106 42.1822 60.7809 41.8187C59.5088 41.3542 59.004 38.5471 59.9328 36.9316C60.8616 35.2958 62.8404 34.589 63.7288 35.5381Z" fill="currentColor"/>
<path d="M41.3569 37.3758C38.6109 37.9614 37.0562 39.3347 35.4005 42.5658L34.29 44.7468L32.0084 46.0999C27.1221 49.0483 25.3452 51.9563 25.9712 56.0155C26.5769 59.8928 28.8181 62.195 32.5535 62.7807C35.0976 63.1644 37.2581 62.5787 39.7214 60.8218C41.155 59.7919 41.9828 59.5091 43.5779 59.5091C45.173 59.5091 46.0009 59.7919 47.4345 60.8218C49.8574 62.5585 52.1592 63.1846 54.6831 62.7605C58.3781 62.1546 60.5991 59.8525 61.1847 56.0357C61.4472 54.2181 61.2453 52.5824 60.5184 51.0678C59.8117 49.5936 57.7118 47.6549 55.1273 46.0999L52.8457 44.7065L51.7554 42.5658C50.0997 39.3145 48.545 37.9614 45.8797 37.396C44.2241 37.0527 42.8712 37.0325 41.3569 37.3758ZM45.8192 40.6271C47.1316 41.0916 47.9392 42.0004 49.1305 44.3631C49.7161 45.5344 50.4228 46.6855 50.6651 46.9077C50.9275 47.15 52.1996 47.9982 53.4716 48.806C57.1263 51.088 58.1156 52.2996 58.1156 54.5009C58.1156 57.8128 56.3388 59.7111 53.2697 59.7111C51.7756 59.7111 50.9074 59.3678 49.0094 58.0753C46.9499 56.6819 46.0211 56.3992 43.5779 56.3992C41.1348 56.3992 40.206 56.6819 38.1465 58.0753C36.2485 59.3678 35.3803 59.7111 33.8861 59.7111C32.3516 59.7111 30.7767 59.0851 30.0902 58.1965C29.4845 57.4493 29.0402 55.8337 29.0402 54.4807C29.0402 52.2795 30.0902 51.0274 33.9871 48.604C35.1986 47.8568 36.41 47.0086 36.6321 46.7461C36.8744 46.5038 37.5206 45.3729 38.0859 44.2622C39.1964 42.0408 40.0243 41.0916 41.2559 40.6473C42.3261 40.2434 44.7288 40.2434 45.8192 40.6271Z" fill="currentColor"/>
</svg>
