<?xml version="1.0" standalone="no"?>
<!DOCTYPE svg PUBLIC "-//W3C//DTD SVG 20010904//EN"
 "http://www.w3.org/TR/2001/REC-SVG-20010904/DTD/svg10.dtd">
<svg version="1.0" xmlns="http://www.w3.org/2000/svg"
 width="512.000000pt" height="512.000000pt" viewBox="0 0 512.000000 512.000000"
 preserveAspectRatio="xMidYMid meet">
<metadata>
Created by potrace 1.14, written by Peter Selinger 2001-2017
</metadata>
<g transform="translate(0.000000,512.000000) scale(0.100000,-0.100000)"
fill="#000000" stroke="none">
<path d="M1455 4315 c-594 -354 -1092 -655 -1107 -669 l-28 -24 0 -1705 c0
-938 3 -1713 6 -1722 4 -8 20 -23 37 -31 27 -14 244 -15 2210 -9 l2181 8 23
23 23 23 0 1709 c0 1614 -1 1711 -17 1730 -29 33 -2185 1306 -2218 1309 -25 3
-226 -114 -1110 -642z m1041 -618 c44 -58 143 -223 167 -277 39 -87 48 -144
55 -336 7 -188 8 -191 40 -256 39 -79 119 -159 199 -196 52 -24 70 -27 163
-27 99 0 110 2 171 32 80 40 160 121 196 200 20 43 27 78 31 150 l5 93 41 -57
c157 -218 290 -485 386 -773 109 -328 151 -588 151 -935 0 -222 -18 -411 -57
-600 -24 -113 -33 -150 -84 -325 l-21 -70 -289 0 -290 0 -4 23 c-33 170 -90
301 -179 412 -91 113 -212 203 -342 252 -58 22 -78 36 -110 77 -59 73 -59 70
-31 140 42 104 30 217 -32 302 -21 29 -34 67 -50 147 -29 146 -68 223 -157
313 -62 63 -88 80 -223 148 l-152 76 0 120 0 120 28 0 c97 1 316 30 339 45 29
19 113 190 113 230 0 33 -42 75 -75 75 -44 0 -64 -18 -100 -90 -31 -61 -39
-70 -67 -74 -48 -8 -699 -66 -734 -66 -24 0 -35 10 -69 62 l-40 61 56 56 c75
75 102 145 98 255 l-3 78 139 72 140 71 62 153 c71 175 89 203 152 243 47 30
285 113 336 118 6 0 24 -19 41 -42z m289 -20 c127 -46 311 -162 397 -250 104
-106 170 -264 171 -411 1 -64 -3 -89 -20 -121 -45 -86 -117 -129 -213 -129
-96 0 -168 44 -213 129 -17 34 -21 67 -28 230 -9 243 -26 304 -126 474 -69
117 -67 111 -35 101 15 -4 45 -15 67 -23z m-1325 -737 c-6 -22 -24 -55 -39
-73 -25 -27 -31 -29 -45 -18 -19 16 -21 71 -3 93 16 21 91 59 95 48 2 -5 -2
-27 -8 -50z m460 -676 c0 -69 5 -134 10 -145 6 -11 88 -58 182 -105 260 -130
304 -182 351 -416 19 -94 30 -122 55 -154 42 -53 50 -108 24 -165 -32 -72
-123 -164 -200 -201 -60 -30 -75 -33 -157 -33 -110 0 -172 25 -259 104 -65 59
-102 66 -141 26 -44 -43 -35 -80 36 -147 190 -181 475 -197 687 -36 30 22 57
36 61 31 3 -5 28 -37 55 -71 43 -55 55 -63 115 -82 157 -50 304 -173 378 -317
42 -81 73 -169 73 -210 l0 -23 -926 2 -927 3 -28 95 c-165 548 -87 1109 223
1610 35 58 80 131 99 164 43 73 95 119 184 162 108 53 105 56 105 -92z"/>
<path d="M2134 3306 c-28 -28 -34 -42 -34 -76 0 -34 6 -48 34 -76 28 -28 42
-34 76 -34 34 0 48 6 76 34 28 28 34 42 34 76 0 34 -6 48 -34 76 -28 28 -42
34 -76 34 -34 0 -48 -6 -76 -34z"/>
<path d="M2790 2421 c-83 -26 -159 -90 -201 -171 -20 -38 -24 -60 -24 -135 0
-134 6 -143 329 -464 243 -243 278 -274 306 -274 28 0 63 31 306 274 323 321
329 330 329 464 0 78 -4 97 -27 140 -57 108 -150 168 -268 173 -108 5 -168
-20 -265 -110 l-75 -70 -74 70 c-88 83 -153 112 -249 111 -34 0 -73 -4 -87 -8z"/>
<path d="M2115 1701 c-50 -22 -77 -89 -56 -143 26 -68 127 -87 180 -34 21 21
26 36 26 76 0 40 -5 55 -26 76 -28 28 -89 40 -124 25z"/>
</g>
</svg>
